<svg width="160" height="152" viewBox="0 0 160 152" fill="none" xmlns="http://www.w3.org/2000/svg">
<g filter="url(#filter0_dddd_3119_2216)">
<rect x="40.3" y="8.19995" width="79.2" height="79.2" rx="39.6" fill="white"/>
<path d="M87.4796 48.7305C87.0908 50.2078 85.2533 51.2517 81.5782 53.3396C78.0256 55.3579 76.2493 56.3672 74.8178 55.9615C74.2259 55.7937 73.6867 55.4753 73.2518 55.0365C72.2 53.9752 72.2 51.9168 72.2 47.7999C72.2 43.6831 72.2 41.6246 73.2518 40.5634C73.6867 40.1246 74.2259 39.8061 74.8178 39.6384C76.2493 39.2327 78.0256 40.2419 81.5782 42.2603C85.2533 44.3481 87.0908 45.392 87.4796 46.8693C87.6401 47.4792 87.6401 48.1207 87.4796 48.7305Z" stroke="black" stroke-width="1.65" stroke-linejoin="round"/>
</g>
<defs>
<filter id="filter0_dddd_3119_2216" x="0.300049" y="0.199951" width="159.2" height="227.2" filterUnits="userSpaceOnUse" color-interpolation-filters="sRGB">
<feFlood flood-opacity="0" result="BackgroundImageFix"/>
<feColorMatrix in="SourceAlpha" type="matrix" values="0 0 0 0 0 0 0 0 0 0 0 0 0 0 0 0 0 0 127 0" result="hardAlpha"/>
<feOffset dy="6"/>
<feGaussianBlur stdDeviation="7"/>
<feColorMatrix type="matrix" values="0 0 0 0 0 0 0 0 0 0 0 0 0 0 0 0 0 0 0.1 0"/>
<feBlend mode="normal" in2="BackgroundImageFix" result="effect1_dropShadow_3119_2216"/>
<feColorMatrix in="SourceAlpha" type="matrix" values="0 0 0 0 0 0 0 0 0 0 0 0 0 0 0 0 0 0 127 0" result="hardAlpha"/>
<feOffset dy="25"/>
<feGaussianBlur stdDeviation="12.5"/>
<feColorMatrix type="matrix" values="0 0 0 0 0 0 0 0 0 0 0 0 0 0 0 0 0 0 0.09 0"/>
<feBlend mode="normal" in2="effect1_dropShadow_3119_2216" result="effect2_dropShadow_3119_2216"/>
<feColorMatrix in="SourceAlpha" type="matrix" values="0 0 0 0 0 0 0 0 0 0 0 0 0 0 0 0 0 0 127 0" result="hardAlpha"/>
<feOffset dy="56"/>
<feGaussianBlur stdDeviation="17"/>
<feColorMatrix type="matrix" values="0 0 0 0 0 0 0 0 0 0 0 0 0 0 0 0 0 0 0.05 0"/>
<feBlend mode="normal" in2="effect2_dropShadow_3119_2216" result="effect3_dropShadow_3119_2216"/>
<feColorMatrix in="SourceAlpha" type="matrix" values="0 0 0 0 0 0 0 0 0 0 0 0 0 0 0 0 0 0 127 0" result="hardAlpha"/>
<feOffset dy="100"/>
<feGaussianBlur stdDeviation="20"/>
<feColorMatrix type="matrix" values="0 0 0 0 0 0 0 0 0 0 0 0 0 0 0 0 0 0 0.01 0"/>
<feBlend mode="normal" in2="effect3_dropShadow_3119_2216" result="effect4_dropShadow_3119_2216"/>
<feBlend mode="normal" in="SourceGraphic" in2="effect4_dropShadow_3119_2216" result="shape"/>
</filter>
</defs>
</svg>
